<?xml version="1.0" encoding="UTF-8"?>
<svg id="Capa_2" data-name="Capa 2" xmlns="http://www.w3.org/2000/svg" viewBox="0 0 929.46 80.38">
  <defs>
    <style>
      .cls-1 {
        fill: #fff;
        stroke-width: 0px;
      }
    </style>
  </defs>
  <g id="Capa_6" data-name="Capa 6">
    <g>
      <path class="cls-1" d="M0,42.03C0,14.72,16.72,0,39.02,0c13.94,0,25.86,5.35,32.22,10.14l-15.38,25.75-.78-.33c8.14-21.74-1.11-30.77-16.17-30.77-17.17,0-27.65,12.26-27.65,33s10.37,34.67,28.88,34.67c13.15,0,25.75-7.58,31.55-24.3l.78.11c-3.68,22.85-20.29,32.11-36.68,32.11C14.72,80.38,0,65.22,0,42.03Z"/>
      <path class="cls-1" d="M157.74,67.67c2.34,5.8,4.46,8.03,9.81,10.81v.78h-27.98v-.78c8.36-3.68,9.37-6.47,6.8-12.93l-4.35-10.81h-36.57l-4.01,10.15c-2.56,6.58-.11,10.26,9.92,13.6v.78h-26.31v-.78c5.13-2.68,7.69-6.02,10.59-13.04l20.85-51.62c2.56-6.24.34-9.92-7.13-11.82v-.78h21.85l26.53,66.44ZM107.35,50.17h32.89l-16.61-41.14-16.28,41.14Z"/>
      <path class="cls-1" d="M237.44,1.23h28.87v.78c-7.36,2.79-9.59,7.8-9.59,13.82v63.88L200.21,8.58v55.41c0,7.47,2.68,11.04,14.16,14.49v.78h-28.99v-.78c7.36-2.9,9.59-7.92,9.59-13.94V10.93c0-4.01-2.12-6.02-9.59-8.92v-.78h22.07l44.15,55.85V16.39c0-7.47-2.68-11.04-14.16-14.38v-.78Z"/>
      <path class="cls-1" d="M355.83,67.67c2.34,5.8,4.46,8.03,9.81,10.81v.78h-27.98v-.78c8.36-3.68,9.37-6.47,6.8-12.93l-4.35-10.81h-36.57l-4.01,10.15c-2.56,6.58-.11,10.26,9.92,13.6v.78h-26.31v-.78c5.13-2.68,7.69-6.02,10.59-13.04l20.85-51.62c2.56-6.24.34-9.92-7.13-11.82v-.78h21.85l26.53,66.44ZM305.44,50.17h32.89l-16.61-41.14-16.28,41.14Z"/>
      <path class="cls-1" d="M491.16,2.01c-7.47,2.9-9.59,5.02-9.59,8.92v54.4c0,5.57,2.12,10.15,9.59,13.16v.78h-33.22v-.78c12.26-3.23,13.6-8.14,13.6-13.82l-.22-56.86-36.9,67.34-36.12-65.78v54.74c0,7.47,2.45,11.15,13.38,14.38v.78h-28.21v-.78c7.36-2.79,9.59-7.8,9.59-13.82V11.04c0-4.12-2.12-6.13-9.59-9.03v-.78h21.74l32,58.19L469.19,1.23h21.96v.78Z"/>
      <path class="cls-1" d="M581.67,67.67c2.34,5.8,4.46,8.03,9.81,10.81v.78h-27.98v-.78c8.36-3.68,9.37-6.47,6.8-12.93l-4.35-10.81h-36.57l-4.01,10.15c-2.56,6.58-.11,10.26,9.92,13.6v.78h-26.31v-.78c5.13-2.68,7.69-6.02,10.59-13.04l20.85-51.62c2.56-6.24.34-9.92-7.13-11.82v-.78h21.85l26.53,66.44ZM531.28,50.17h32.89l-16.61-41.14-16.28,41.14Z"/>
      <path class="cls-1" d="M670.51,67.78c2.79,6.02,5.24,7.58,13.6,10.7v.78h-19.51l-10.48-22.52c-3.9-8.36-7.58-11.26-17.39-11.26-2.12,0-4.9.11-7.8.33v23.75c0,3.9,2.23,6.02,9.92,8.92v.78h-29.54v-.78c7.47-2.9,9.59-5.02,9.59-8.92V10.93c0-3.9-2.12-6.13-9.59-8.92v-.78h38.13c14.83,0,24.3,4.79,24.3,16.72,0,10.7-8.58,20.96-28.43,24.64,9.7.22,16.83,3.57,22.85,16.05l4.35,9.14ZM628.93,41.03c23.41-.89,32-12.15,32-22.52,0-8.7-6.24-12.71-18.39-12.71h-13.6v35.23Z"/>
      <path class="cls-1" d="M701.72,79.26v-.78c7.47-2.79,9.59-5.13,9.59-9.03V10.93c0-3.9-2.12-6.02-9.59-8.92v-.78h29.21v.78c-7.47,2.9-9.59,5.02-9.59,8.92v58.53c0,3.9,2.12,6.24,9.59,9.03v.78h-29.21Z"/>
      <path class="cls-1" d="M808.63,1.23h28.87v.78c-7.36,2.79-9.59,7.8-9.59,13.82v63.88l-56.52-71.13v55.41c0,7.47,2.68,11.04,14.16,14.49v.78h-28.99v-.78c7.36-2.9,9.59-7.92,9.59-13.94V10.93c0-4.01-2.12-6.02-9.59-8.92v-.78h22.07l44.15,55.85V16.39c0-7.47-2.68-11.04-14.16-14.38v-.78Z"/>
      <path class="cls-1" d="M929.46,51.39l-4.79,27.87h-62.54v-.78c7.47-2.9,9.59-4.91,9.59-8.58V11.48c0-4.68-2.12-6.69-9.59-9.48v-.78h64.55v25.31h-.78c-3.01-15.94-9.7-20.74-23.08-20.74h-21.07v30.88h10.15c9.7,0,13.6-4.91,16.61-17.84h.78v40.13h-.78c-2.9-13.04-6.91-18.06-16.61-18.06h-10.15v33.78h15.5c15.94,0,23.86-4.57,31.44-23.52l.78.22Z"/>
    </g>
  </g>
</svg>