<?xml version="1.0" encoding="UTF-8"?>
<svg id="Capa_2" data-name="Capa 2" xmlns="http://www.w3.org/2000/svg" viewBox="0 0 778.29 778.29">
  <defs>
    <style>
      .cls-1 {
        opacity: .8;
      }

      .cls-1,
      .cls-2 {
        fill: none;
        stroke: #39466A;
        stroke-miterlimit: 10;
        stroke-width: 7px;
      }

      .cls-2 {
        opacity: .3;
      }

      .cls-3,
      .cls-4 {
        fill: #39466A;
        fill-rule: evenodd;
        stroke-width: 0px;
      }

      .cls-4 {
        opacity: .5;
      }
    </style>
  </defs>
  <g id="Capa_2-2" data-name="Capa 2">
    <g>
      <circle class="cls-2" cx="389.15" cy="389.15" r="262.94" />
      <circle class="cls-1" cx="389.15" cy="389.15" r="247.21" />
      <g>
        <polygon class="cls-3"
          points="389.15 0 425.9 243.58 451.68 389.15 411.26 526.73 389.15 778.29 367.04 526.73 326.61 389.15 351.67 243.58 389.15 0" />
        <polygon class="cls-3"
          points="0 416.68 251.56 394.57 389.15 354.14 526.73 394.57 778.29 416.68 526.73 438.79 389.15 479.21 251.56 438.79 0 416.68" />
      </g>
      <polygon class="cls-4"
        points="592.95 190.96 475.22 347.18 395.81 422.9 359.26 526.36 264.98 697.76 382.71 541.54 462.12 465.82 498.67 362.35 592.95 190.96" />
      <polygon class="cls-4"
        points="185.34 190.96 303.07 347.18 382.49 422.9 419.03 526.36 513.32 697.76 395.58 541.54 316.17 465.82 279.63 362.35 185.34 190.96" />
      <path class="cls-3"
        d="M497.62,493.9l96.84-82.22c1.34-1.14,1.12-3.26-.42-4.1l-17.39-9.52c-.08-.04-.16-.08-.25-.12-9.24-3.74-7.37-7.54-3.63-20.65l14.05-54.43c.47-1.81-1.15-3.48-2.97-3.07l-54.12,12.19c-.2.05-.41.07-.62.06-5.31-.13-8.87-3.62-9.06-7.21-.01-.2-.04-.4-.09-.59l-6.19-21.59c-.55-1.92-3.01-2.45-4.31-.94l-42.13,49.19c-7.58,9.4-20.76,9.4-17.01-11.29l19.76-103.91c.4-2.1-1.84-3.7-3.7-2.64l-21.16,12.07c-.35.2-.7.39-1.06.56-7.35,3.58-14.62,5.2-18.27-2.15l-35.37-67.25c-.95-1.8-3.54-1.78-4.45.04l-30.08,60.07c-3.1,6.19-9.36,10.31-16.27,10.32-2.12,0-4.24-.35-6.13-1.29l-21.79-12.42c-1.84-1.05-4.07.52-3.7,2.6l17.97,103.9c.01.07.03.14.05.21,5.55,20.59-7.58,20.58-15.17,11.19l-42.13-49.18c-1.3-1.51-3.76-.98-4.31.94l-6.18,21.62c-.05.17-.11.33-.19.48-1.87,3.61-5.51,7.15-10.93,7.28-.21,0-.42-.02-.62-.07l-53.89-12.16c-1.86-.42-3.48,1.31-2.95,3.14l15.72,54.17c.03.11.06.22.07.33,1.87,12.97,5.53,16.75-3.67,20.47-.08.03-.16.07-.24.11-1.22.67-11.93,6.53-17.4,9.52-1.54.84-1.75,2.96-.41,4.09l96.84,82.22c.12.1.26.19.39.27,3.57,2.02,5.34,9.13,3.65,12.88-.06.13-.11.26-.14.4l-6.61,26.44c-.42,1.69.98,3.29,2.71,3.09,61.22-6.9,82.71-12.13,97.36-12.71,1.42-.06,2.61,1.08,2.61,2.5v52.5c0,1.48,1.28,2.63,2.75,2.48,3.88-.4,7.77-.5,11.67-.38,1.41.04,2.57-1.09,2.57-2.5v-52.11c0-1.42,1.18-2.56,2.61-2.5,14.63.58,36.09,5.8,97.14,12.68,1.8.2,3.21-1.51,2.67-3.23l-8.15-26.09c-.08-.26-.12-.52-.11-.79.12-3.8,1.94-10.68,5.43-12.66.14-.08.27-.16.39-.27Z" />
    </g>
  </g>
</svg>