<?xml version="1.0" encoding="UTF-8"?>
<svg id="Capa_2" data-name="Capa 2" xmlns="http://www.w3.org/2000/svg" viewBox="0 0 778.29 868.76">
  <defs>
    <style>
      .cls-1 {
        opacity: .8;
      }

      .cls-1, .cls-2 {
        fill: none;
        stroke: #ed272a;
        stroke-miterlimit: 10;
        stroke-width: 7px;
      }

      .cls-2 {
        opacity: .3;
      }

      .cls-3, .cls-4 {
        fill-rule: evenodd;
      }

      .cls-3, .cls-4, .cls-5 {
        fill: #ed272a;
        stroke-width: 0px;
      }

      .cls-4 {
        opacity: .5;
      }
    </style>
  </defs>
  <g id="Capa_6" data-name="Capa 6">
    <g>
      <circle class="cls-2" cx="389.15" cy="389.15" r="262.94"/>
      <circle class="cls-1" cx="389.15" cy="389.15" r="247.21"/>
      <g>
        <polygon class="cls-3" points="389.15 0 425.9 243.58 451.68 389.15 411.26 526.73 389.15 778.29 367.04 526.73 326.61 389.15 351.67 243.58 389.15 0"/>
        <polygon class="cls-3" points="0 416.68 251.56 394.57 389.15 354.14 526.73 394.57 778.29 416.68 526.73 438.79 389.15 479.21 251.56 438.79 0 416.68"/>
      </g>
      <polygon class="cls-4" points="592.95 190.96 475.22 347.18 395.81 422.9 359.26 526.36 264.98 697.76 382.71 541.54 462.12 465.82 498.67 362.35 592.95 190.96"/>
      <polygon class="cls-4" points="185.34 190.96 303.07 347.18 382.49 422.9 419.03 526.36 513.32 697.76 395.58 541.54 316.17 465.82 279.63 362.35 185.34 190.96"/>
      <path class="cls-3" d="M497.62,493.9l96.84-82.22c1.34-1.14,1.12-3.26-.42-4.1l-17.39-9.52c-.08-.04-.16-.08-.25-.12-9.24-3.74-7.37-7.54-3.63-20.65l14.05-54.43c.47-1.81-1.15-3.48-2.97-3.07l-54.12,12.19c-.2.05-.41.07-.62.06-5.31-.13-8.87-3.62-9.06-7.21-.01-.2-.04-.4-.09-.59l-6.19-21.59c-.55-1.92-3.01-2.45-4.31-.94l-42.13,49.19c-7.58,9.4-20.76,9.4-17.01-11.29l19.76-103.91c.4-2.1-1.84-3.7-3.7-2.64l-21.16,12.07c-.35.2-.7.39-1.06.56-7.35,3.58-14.62,5.2-18.27-2.15l-35.37-67.25c-.95-1.8-3.54-1.78-4.45.04l-30.08,60.07c-3.1,6.19-9.36,10.31-16.27,10.32-2.12,0-4.24-.35-6.13-1.29l-21.79-12.42c-1.84-1.05-4.07.52-3.7,2.6l17.97,103.9c.01.07.03.14.05.21,5.55,20.59-7.58,20.58-15.17,11.19l-42.13-49.18c-1.3-1.51-3.76-.98-4.31.94l-6.18,21.62c-.05.17-.11.33-.19.48-1.87,3.61-5.51,7.15-10.93,7.28-.21,0-.42-.02-.62-.07l-53.89-12.16c-1.86-.42-3.48,1.31-2.95,3.14l15.72,54.17c.03.11.06.22.07.33,1.87,12.97,5.53,16.75-3.67,20.47-.08.03-.16.07-.24.11-1.22.67-11.93,6.53-17.4,9.52-1.54.84-1.75,2.96-.41,4.09l96.84,82.22c.12.1.26.19.39.27,3.57,2.02,5.34,9.13,3.65,12.88-.06.13-.11.26-.14.4l-6.61,26.44c-.42,1.69.98,3.29,2.71,3.09,61.22-6.9,82.71-12.13,97.36-12.71,1.42-.06,2.61,1.08,2.61,2.5v52.5c0,1.48,1.28,2.63,2.75,2.48,3.88-.4,7.77-.5,11.67-.38,1.41.04,2.57-1.09,2.57-2.5v-52.11c0-1.42,1.18-2.56,2.61-2.5,14.63.58,36.09,5.8,97.14,12.68,1.8.2,3.21-1.51,2.67-3.23l-8.15-26.09c-.08-.26-.12-.52-.11-.79.12-3.8,1.94-10.68,5.43-12.66.14-.08.27-.16.39-.27Z"/>
    </g>
    <g>
      <path class="cls-5" d="M88.98,843.99c0-17.64,10.8-27.15,25.2-27.15,9,0,16.71,3.46,20.81,6.55l-9.94,16.63-.5-.22c5.26-14.04-.72-19.87-10.44-19.87-11.09,0-17.86,7.92-17.86,21.31s6.7,22.39,18.65,22.39c8.5,0,16.63-4.9,20.38-15.7l.5.07c-2.38,14.76-13.1,20.74-23.69,20.74-13.61,0-23.11-9.79-23.11-24.77Z"/>
      <path class="cls-5" d="M190.86,860.55c1.51,3.74,2.88,5.18,6.34,6.98v.5h-18.07v-.5c5.4-2.38,6.05-4.18,4.39-8.35l-2.81-6.98h-23.62l-2.59,6.55c-1.66,4.25-.07,6.62,6.41,8.78v.5h-16.99v-.5c3.31-1.73,4.97-3.89,6.84-8.42l13.46-33.34c1.66-4.03.22-6.41-4.61-7.63v-.5h14.11l17.14,42.92ZM158.32,849.24h21.24l-10.73-26.57-10.51,26.57Z"/>
      <path class="cls-5" d="M242.34,817.63h18.65v.5c-4.75,1.8-6.19,5.04-6.19,8.93v41.26l-36.51-45.94v35.79c0,4.82,1.73,7.13,9.15,9.36v.5h-18.72v-.5c4.75-1.87,6.19-5.11,6.19-9v-34.63c0-2.59-1.37-3.89-6.19-5.76v-.5h14.26l28.51,36.08v-26.28c0-4.82-1.73-7.13-9.14-9.29v-.5Z"/>
      <path class="cls-5" d="M318.81,860.55c1.51,3.74,2.88,5.18,6.34,6.98v.5h-18.07v-.5c5.4-2.38,6.05-4.18,4.39-8.35l-2.81-6.98h-23.62l-2.59,6.55c-1.66,4.25-.07,6.62,6.41,8.78v.5h-16.99v-.5c3.31-1.73,4.97-3.89,6.84-8.42l13.46-33.34c1.66-4.03.22-6.41-4.61-7.63v-.5h14.11l17.14,42.92ZM286.26,849.24h21.24l-10.73-26.57-10.51,26.57Z"/>
      <path class="cls-5" d="M406.22,818.14c-4.82,1.87-6.19,3.24-6.19,5.76v35.14c0,3.6,1.37,6.55,6.19,8.5v.5h-21.46v-.5c7.92-2.09,8.79-5.26,8.79-8.93l-.14-36.72-23.83,43.49-23.33-42.48v35.35c0,4.82,1.58,7.2,8.64,9.29v.5h-18.22v-.5c4.75-1.8,6.19-5.04,6.19-8.93v-34.64c0-2.66-1.37-3.96-6.19-5.83v-.5h14.04l20.67,37.59,20.67-37.59h14.19v.5Z"/>
      <path class="cls-5" d="M464.68,860.55c1.51,3.74,2.88,5.18,6.34,6.98v.5h-18.07v-.5c5.4-2.38,6.05-4.18,4.39-8.35l-2.81-6.98h-23.62l-2.59,6.55c-1.66,4.25-.07,6.62,6.41,8.78v.5h-16.99v-.5c3.31-1.73,4.97-3.89,6.84-8.42l13.46-33.34c1.66-4.03.22-6.41-4.61-7.63v-.5h14.11l17.14,42.92ZM432.13,849.24h21.24l-10.73-26.57-10.51,26.57Z"/>
      <path class="cls-5" d="M522.06,860.62c1.8,3.89,3.38,4.9,8.78,6.91v.5h-12.6l-6.77-14.55c-2.52-5.4-4.9-7.27-11.23-7.27-1.37,0-3.17.07-5.04.22v15.34c0,2.52,1.44,3.89,6.41,5.76v.5h-19.08v-.5c4.82-1.87,6.19-3.24,6.19-5.76v-37.88c0-2.52-1.37-3.96-6.19-5.76v-.5h24.63c9.58,0,15.7,3.1,15.7,10.8,0,6.91-5.54,13.54-18.36,15.91,6.26.14,10.87,2.3,14.76,10.37l2.81,5.9ZM495.2,843.34c15.12-.58,20.67-7.85,20.67-14.54,0-5.62-4.03-8.21-11.88-8.21h-8.79v22.75Z"/>
      <path class="cls-5" d="M542.22,868.04v-.5c4.82-1.8,6.19-3.31,6.19-5.83v-37.8c0-2.52-1.37-3.89-6.19-5.76v-.5h18.87v.5c-4.82,1.87-6.19,3.24-6.19,5.76v37.8c0,2.52,1.37,4.03,6.19,5.83v.5h-18.87Z"/>
      <path class="cls-5" d="M611.27,817.63h18.65v.5c-4.75,1.8-6.19,5.04-6.19,8.93v41.26l-36.51-45.94v35.79c0,4.82,1.73,7.13,9.15,9.36v.5h-18.72v-.5c4.75-1.87,6.19-5.11,6.19-9v-34.63c0-2.59-1.37-3.89-6.19-5.76v-.5h14.26l28.51,36.08v-26.28c0-4.82-1.73-7.13-9.14-9.29v-.5Z"/>
      <path class="cls-5" d="M689.31,850.04l-3.1,18h-40.4v-.5c4.82-1.87,6.19-3.17,6.19-5.54v-37.73c0-3.02-1.37-4.32-6.19-6.12v-.5h41.69v16.35h-.5c-1.94-10.3-6.26-13.39-14.91-13.39h-13.61v19.95h6.55c6.26,0,8.78-3.17,10.73-11.52h.5v25.92h-.5c-1.87-8.42-4.46-11.67-10.73-11.67h-6.55v21.82h10.01c10.3,0,15.41-2.95,20.31-15.19l.5.14Z"/>
    </g>
  </g>
</svg>